<mxfile host="app.diagrams.net" agent="Mozilla/5.0 (Windows NT 10.0; Win64; x64) AppleWebKit/537.36 (KHTML, like Gecko) Chrome/129.0.0.0 Safari/537.36" version="24.8.0">
  <diagram id="R2lEEEUBdFMjLlhIrx00" name="Page-1">
    <mxGraphModel dx="6057" dy="3127" grid="1" gridSize="10" guides="1" tooltips="1" connect="1" arrows="1" fold="1" page="1" pageScale="1" pageWidth="850" pageHeight="1100" math="0" shadow="0" extFonts="Permanent Marker^https://fonts.googleapis.com/css?family=Permanent+Marker">
      <root>
        <mxCell id="0" />
        <mxCell id="1" parent="0" />
        <mxCell id="wT4sSvwTyP3O7M3z2ACw-2" value="ALUMNO" style="rounded=0;whiteSpace=wrap;html=1;" parent="1" vertex="1">
          <mxGeometry x="510" y="610" width="120" height="60" as="geometry" />
        </mxCell>
        <mxCell id="wT4sSvwTyP3O7M3z2ACw-3" value="PROFESOR" style="rounded=0;whiteSpace=wrap;html=1;" parent="1" vertex="1">
          <mxGeometry x="20" y="190" width="120" height="60" as="geometry" />
        </mxCell>
        <mxCell id="wT4sSvwTyP3O7M3z2ACw-5" value="MODULO" style="rounded=0;whiteSpace=wrap;html=1;" parent="1" vertex="1">
          <mxGeometry x="20" y="610" width="120" height="60" as="geometry" />
        </mxCell>
        <mxCell id="wT4sSvwTyP3O7M3z2ACw-7" value="Se matricula" style="rhombus;whiteSpace=wrap;html=1;" parent="1" vertex="1">
          <mxGeometry x="270" y="600" width="120" height="80" as="geometry" />
        </mxCell>
        <mxCell id="wT4sSvwTyP3O7M3z2ACw-9" value="Imparte" style="rhombus;whiteSpace=wrap;html=1;" parent="1" vertex="1">
          <mxGeometry x="20" y="390" width="120" height="80" as="geometry" />
        </mxCell>
        <mxCell id="wT4sSvwTyP3O7M3z2ACw-13" value="" style="endArrow=none;html=1;rounded=0;exitX=1;exitY=0.5;exitDx=0;exitDy=0;entryX=0;entryY=0.5;entryDx=0;entryDy=0;" parent="1" source="wT4sSvwTyP3O7M3z2ACw-5" target="wT4sSvwTyP3O7M3z2ACw-7" edge="1">
          <mxGeometry width="50" height="50" relative="1" as="geometry">
            <mxPoint x="250" y="630" as="sourcePoint" />
            <mxPoint x="250" y="770" as="targetPoint" />
          </mxGeometry>
        </mxCell>
        <mxCell id="wT4sSvwTyP3O7M3z2ACw-14" value="" style="endArrow=none;html=1;rounded=0;exitX=1;exitY=0.5;exitDx=0;exitDy=0;entryX=0;entryY=0.5;entryDx=0;entryDy=0;" parent="1" source="wT4sSvwTyP3O7M3z2ACw-7" target="wT4sSvwTyP3O7M3z2ACw-2" edge="1">
          <mxGeometry width="50" height="50" relative="1" as="geometry">
            <mxPoint x="100" y="490" as="sourcePoint" />
            <mxPoint x="100" y="630" as="targetPoint" />
          </mxGeometry>
        </mxCell>
        <mxCell id="wT4sSvwTyP3O7M3z2ACw-15" value="0,1" style="text;html=1;align=center;verticalAlign=middle;whiteSpace=wrap;rounded=0;fontSize=16;" parent="1" vertex="1">
          <mxGeometry x="-30" y="290" width="70" height="30" as="geometry" />
        </mxCell>
        <mxCell id="wT4sSvwTyP3O7M3z2ACw-16" value="1,n" style="text;html=1;align=center;verticalAlign=middle;whiteSpace=wrap;rounded=0;fontSize=16;" parent="1" vertex="1">
          <mxGeometry x="90" y="520" width="70" height="30" as="geometry" />
        </mxCell>
        <mxCell id="wT4sSvwTyP3O7M3z2ACw-17" value="1,n" style="text;html=1;align=center;verticalAlign=middle;whiteSpace=wrap;rounded=0;fontSize=16;" parent="1" vertex="1">
          <mxGeometry x="181" y="580" width="70" height="30" as="geometry" />
        </mxCell>
        <mxCell id="wT4sSvwTyP3O7M3z2ACw-18" value="0,n" style="text;html=1;align=center;verticalAlign=middle;whiteSpace=wrap;rounded=0;fontSize=16;" parent="1" vertex="1">
          <mxGeometry x="410" y="580" width="70" height="30" as="geometry" />
        </mxCell>
        <mxCell id="wT4sSvwTyP3O7M3z2ACw-24" value="" style="endArrow=none;html=1;rounded=0;exitX=1;exitY=0;exitDx=0;exitDy=0;entryX=0;entryY=0.5;entryDx=0;entryDy=0;" parent="1" source="wT4sSvwTyP3O7M3z2ACw-3" target="wT4sSvwTyP3O7M3z2ACw-25" edge="1">
          <mxGeometry width="50" height="50" relative="1" as="geometry">
            <mxPoint x="420" y="400" as="sourcePoint" />
            <mxPoint x="210" y="140" as="targetPoint" />
          </mxGeometry>
        </mxCell>
        <mxCell id="wT4sSvwTyP3O7M3z2ACw-25" value="DNI" style="ellipse;whiteSpace=wrap;html=1;" parent="1" vertex="1">
          <mxGeometry x="160" y="50" width="60" height="30" as="geometry" />
        </mxCell>
        <mxCell id="wT4sSvwTyP3O7M3z2ACw-26" value="nombre" style="ellipse;whiteSpace=wrap;html=1;" parent="1" vertex="1">
          <mxGeometry x="180" y="90" width="60" height="30" as="geometry" />
        </mxCell>
        <mxCell id="wT4sSvwTyP3O7M3z2ACw-27" value="" style="endArrow=none;html=1;rounded=0;exitX=1.017;exitY=0.373;exitDx=0;exitDy=0;entryX=0;entryY=0.5;entryDx=0;entryDy=0;exitPerimeter=0;" parent="1" source="wT4sSvwTyP3O7M3z2ACw-3" target="wT4sSvwTyP3O7M3z2ACw-26" edge="1">
          <mxGeometry width="50" height="50" relative="1" as="geometry">
            <mxPoint x="150" y="200" as="sourcePoint" />
            <mxPoint x="200" y="115" as="targetPoint" />
          </mxGeometry>
        </mxCell>
        <mxCell id="wT4sSvwTyP3O7M3z2ACw-28" value="" style="endArrow=none;html=1;rounded=0;exitX=1;exitY=0.5;exitDx=0;exitDy=0;entryX=0;entryY=0.5;entryDx=0;entryDy=0;exitPerimeter=0;" parent="1" source="wT4sSvwTyP3O7M3z2ACw-3" target="wT4sSvwTyP3O7M3z2ACw-29" edge="1">
          <mxGeometry width="50" height="50" relative="1" as="geometry">
            <mxPoint x="170" y="280" as="sourcePoint" />
            <mxPoint x="240" y="230" as="targetPoint" />
          </mxGeometry>
        </mxCell>
        <mxCell id="wT4sSvwTyP3O7M3z2ACw-29" value="Direccion" style="ellipse;whiteSpace=wrap;html=1;" parent="1" vertex="1">
          <mxGeometry x="200" y="130" width="60" height="30" as="geometry" />
        </mxCell>
        <mxCell id="wT4sSvwTyP3O7M3z2ACw-30" value="telefono" style="ellipse;whiteSpace=wrap;html=1;" parent="1" vertex="1">
          <mxGeometry x="210" y="170" width="60" height="30" as="geometry" />
        </mxCell>
        <mxCell id="wT4sSvwTyP3O7M3z2ACw-31" value="" style="endArrow=none;html=1;rounded=0;exitX=1;exitY=0.75;exitDx=0;exitDy=0;entryX=0;entryY=0.5;entryDx=0;entryDy=0;" parent="1" source="wT4sSvwTyP3O7M3z2ACw-3" target="wT4sSvwTyP3O7M3z2ACw-30" edge="1">
          <mxGeometry width="50" height="50" relative="1" as="geometry">
            <mxPoint x="172" y="302" as="sourcePoint" />
            <mxPoint x="230" y="205" as="targetPoint" />
          </mxGeometry>
        </mxCell>
        <mxCell id="wT4sSvwTyP3O7M3z2ACw-32" value="" style="endArrow=none;html=1;rounded=0;exitX=0.5;exitY=1;exitDx=0;exitDy=0;entryX=0;entryY=0.5;entryDx=0;entryDy=0;" parent="1" source="wT4sSvwTyP3O7M3z2ACw-5" target="wT4sSvwTyP3O7M3z2ACw-33" edge="1">
          <mxGeometry width="50" height="50" relative="1" as="geometry">
            <mxPoint x="90" y="880" as="sourcePoint" />
            <mxPoint x="160" y="830" as="targetPoint" />
          </mxGeometry>
        </mxCell>
        <mxCell id="wT4sSvwTyP3O7M3z2ACw-33" value="codigo" style="ellipse;whiteSpace=wrap;html=1;" parent="1" vertex="1">
          <mxGeometry x="110" y="730" width="60" height="30" as="geometry" />
        </mxCell>
        <mxCell id="wT4sSvwTyP3O7M3z2ACw-40" value="Nombre" style="ellipse;whiteSpace=wrap;html=1;" parent="1" vertex="1">
          <mxGeometry x="10" y="730" width="60" height="30" as="geometry" />
        </mxCell>
        <mxCell id="wT4sSvwTyP3O7M3z2ACw-41" value="" style="endArrow=none;html=1;rounded=0;exitX=0.5;exitY=1;exitDx=0;exitDy=0;entryX=1;entryY=0.5;entryDx=0;entryDy=0;" parent="1" source="wT4sSvwTyP3O7M3z2ACw-5" target="wT4sSvwTyP3O7M3z2ACw-40" edge="1">
          <mxGeometry width="50" height="50" relative="1" as="geometry">
            <mxPoint x="90" y="680" as="sourcePoint" />
            <mxPoint x="120" y="765" as="targetPoint" />
          </mxGeometry>
        </mxCell>
        <mxCell id="wT4sSvwTyP3O7M3z2ACw-43" value="" style="endArrow=none;html=1;rounded=0;exitX=0.5;exitY=1;exitDx=0;exitDy=0;entryX=0;entryY=0.5;entryDx=0;entryDy=0;" parent="1" target="wT4sSvwTyP3O7M3z2ACw-44" edge="1">
          <mxGeometry width="50" height="50" relative="1" as="geometry">
            <mxPoint x="570" y="670" as="sourcePoint" />
            <mxPoint x="650" y="830" as="targetPoint" />
          </mxGeometry>
        </mxCell>
        <mxCell id="wT4sSvwTyP3O7M3z2ACw-44" value="NÂºexp" style="ellipse;whiteSpace=wrap;html=1;" parent="1" vertex="1">
          <mxGeometry x="600" y="730" width="60" height="30" as="geometry" />
        </mxCell>
        <mxCell id="wT4sSvwTyP3O7M3z2ACw-45" value="Nombre" style="ellipse;whiteSpace=wrap;html=1;" parent="1" vertex="1">
          <mxGeometry x="500" y="730" width="60" height="30" as="geometry" />
        </mxCell>
        <mxCell id="wT4sSvwTyP3O7M3z2ACw-46" value="" style="endArrow=none;html=1;rounded=0;exitX=0.5;exitY=1;exitDx=0;exitDy=0;entryX=1;entryY=0.5;entryDx=0;entryDy=0;" parent="1" target="wT4sSvwTyP3O7M3z2ACw-45" edge="1">
          <mxGeometry width="50" height="50" relative="1" as="geometry">
            <mxPoint x="570" y="670" as="sourcePoint" />
            <mxPoint x="610" y="765" as="targetPoint" />
          </mxGeometry>
        </mxCell>
        <mxCell id="wT4sSvwTyP3O7M3z2ACw-47" value="Apellido" style="ellipse;whiteSpace=wrap;html=1;" parent="1" vertex="1">
          <mxGeometry x="500" y="780" width="60" height="30" as="geometry" />
        </mxCell>
        <mxCell id="wT4sSvwTyP3O7M3z2ACw-48" value="F. Nacimiento" style="ellipse;whiteSpace=wrap;html=1;" parent="1" vertex="1">
          <mxGeometry x="587.5" y="770" width="95" height="40" as="geometry" />
        </mxCell>
        <mxCell id="wT4sSvwTyP3O7M3z2ACw-50" value="" style="endArrow=classic;html=1;rounded=0;exitX=0.5;exitY=1;exitDx=0;exitDy=0;entryX=0.5;entryY=0;entryDx=0;entryDy=0;" parent="1" source="wT4sSvwTyP3O7M3z2ACw-9" target="wT4sSvwTyP3O7M3z2ACw-5" edge="1">
          <mxGeometry width="50" height="50" relative="1" as="geometry">
            <mxPoint x="160" y="340" as="sourcePoint" />
            <mxPoint x="210" y="290" as="targetPoint" />
            <Array as="points" />
          </mxGeometry>
        </mxCell>
        <mxCell id="wT4sSvwTyP3O7M3z2ACw-51" value="" style="endArrow=classic;html=1;rounded=0;entryX=0.5;entryY=1;entryDx=0;entryDy=0;exitX=0.5;exitY=0;exitDx=0;exitDy=0;" parent="1" source="wT4sSvwTyP3O7M3z2ACw-9" target="wT4sSvwTyP3O7M3z2ACw-3" edge="1">
          <mxGeometry width="50" height="50" relative="1" as="geometry">
            <mxPoint x="160" y="340" as="sourcePoint" />
            <mxPoint x="210" y="290" as="targetPoint" />
          </mxGeometry>
        </mxCell>
        <mxCell id="2K22D86Efe3pXR3erV2T-1" value="Camionero" style="rounded=0;whiteSpace=wrap;html=1;" vertex="1" parent="1">
          <mxGeometry x="1210" y="280" width="120" height="60" as="geometry" />
        </mxCell>
        <mxCell id="2K22D86Efe3pXR3erV2T-2" value="Paquetes" style="rounded=0;whiteSpace=wrap;html=1;" vertex="1" parent="1">
          <mxGeometry x="1820" y="280" width="120" height="60" as="geometry" />
        </mxCell>
        <mxCell id="2K22D86Efe3pXR3erV2T-3" value="Provincia" style="rounded=0;whiteSpace=wrap;html=1;" vertex="1" parent="1">
          <mxGeometry x="1820" y="670" width="120" height="60" as="geometry" />
        </mxCell>
        <mxCell id="2K22D86Efe3pXR3erV2T-4" value="Camion" style="rounded=0;whiteSpace=wrap;html=1;" vertex="1" parent="1">
          <mxGeometry x="1210" y="680" width="120" height="60" as="geometry" />
        </mxCell>
        <mxCell id="2K22D86Efe3pXR3erV2T-6" value="Conduce&lt;span style=&quot;color: rgba(0, 0, 0, 0); font-family: monospace; font-size: 0px; text-align: start; text-wrap: nowrap;&quot;&gt;%3CmxGraphModel%3E%3Croot%3E%3CmxCell%20id%3D%220%22%2F%3E%3CmxCell%20id%3D%221%22%20parent%3D%220%22%2F%3E%3CmxCell%20id%3D%222%22%20value%3D%22Paquetes%22%20style%3D%22rounded%3D0%3BwhiteSpace%3Dwrap%3Bhtml%3D1%3B%22%20vertex%3D%221%22%20parent%3D%221%22%3E%3CmxGeometry%20x%3D%221820%22%20y%3D%22275%22%20width%3D%22120%22%20height%3D%2260%22%20as%3D%22geometry%22%2F%3E%3C%2FmxCell%3E%3C%2Froot%3E%3C%2FmxGraphModel%3E&lt;/span&gt;" style="rhombus;whiteSpace=wrap;html=1;" vertex="1" parent="1">
          <mxGeometry x="1200" y="460" width="140" height="80" as="geometry" />
        </mxCell>
        <mxCell id="2K22D86Efe3pXR3erV2T-8" value="Transporta" style="rhombus;whiteSpace=wrap;html=1;" vertex="1" parent="1">
          <mxGeometry x="1510" y="270" width="140" height="80" as="geometry" />
        </mxCell>
        <mxCell id="2K22D86Efe3pXR3erV2T-9" value="llegan" style="rhombus;whiteSpace=wrap;html=1;" vertex="1" parent="1">
          <mxGeometry x="1810" y="450" width="140" height="80" as="geometry" />
        </mxCell>
        <mxCell id="2K22D86Efe3pXR3erV2T-12" value="" style="endArrow=none;html=1;rounded=0;exitX=0.5;exitY=1;exitDx=0;exitDy=0;entryX=0.5;entryY=0;entryDx=0;entryDy=0;" edge="1" parent="1" source="2K22D86Efe3pXR3erV2T-1" target="2K22D86Efe3pXR3erV2T-6">
          <mxGeometry width="50" height="50" relative="1" as="geometry">
            <mxPoint x="1530" y="420" as="sourcePoint" />
            <mxPoint x="1580" y="370" as="targetPoint" />
          </mxGeometry>
        </mxCell>
        <mxCell id="2K22D86Efe3pXR3erV2T-13" value="" style="endArrow=none;html=1;rounded=0;exitX=0.5;exitY=1;exitDx=0;exitDy=0;entryX=0.5;entryY=0;entryDx=0;entryDy=0;" edge="1" parent="1" source="2K22D86Efe3pXR3erV2T-6" target="2K22D86Efe3pXR3erV2T-4">
          <mxGeometry width="50" height="50" relative="1" as="geometry">
            <mxPoint x="1280" y="350" as="sourcePoint" />
            <mxPoint x="1280" y="470" as="targetPoint" />
          </mxGeometry>
        </mxCell>
        <mxCell id="2K22D86Efe3pXR3erV2T-14" value="" style="endArrow=none;html=1;rounded=0;exitX=1;exitY=0.5;exitDx=0;exitDy=0;entryX=0;entryY=0.5;entryDx=0;entryDy=0;" edge="1" parent="1" source="2K22D86Efe3pXR3erV2T-1" target="2K22D86Efe3pXR3erV2T-8">
          <mxGeometry width="50" height="50" relative="1" as="geometry">
            <mxPoint x="1280" y="350" as="sourcePoint" />
            <mxPoint x="1280" y="470" as="targetPoint" />
          </mxGeometry>
        </mxCell>
        <mxCell id="2K22D86Efe3pXR3erV2T-15" value="" style="endArrow=none;html=1;rounded=0;exitX=1;exitY=0.5;exitDx=0;exitDy=0;entryX=0;entryY=0.5;entryDx=0;entryDy=0;" edge="1" parent="1" source="2K22D86Efe3pXR3erV2T-8" target="2K22D86Efe3pXR3erV2T-2">
          <mxGeometry width="50" height="50" relative="1" as="geometry">
            <mxPoint x="1290" y="360" as="sourcePoint" />
            <mxPoint x="1290" y="480" as="targetPoint" />
          </mxGeometry>
        </mxCell>
        <mxCell id="2K22D86Efe3pXR3erV2T-16" value="" style="endArrow=none;html=1;rounded=0;exitX=0.5;exitY=1;exitDx=0;exitDy=0;entryX=0.5;entryY=0;entryDx=0;entryDy=0;" edge="1" parent="1" source="2K22D86Efe3pXR3erV2T-2" target="2K22D86Efe3pXR3erV2T-9">
          <mxGeometry width="50" height="50" relative="1" as="geometry">
            <mxPoint x="1660" y="320" as="sourcePoint" />
            <mxPoint x="1830" y="320" as="targetPoint" />
          </mxGeometry>
        </mxCell>
        <mxCell id="2K22D86Efe3pXR3erV2T-17" value="" style="endArrow=none;html=1;rounded=0;exitX=0.5;exitY=1;exitDx=0;exitDy=0;" edge="1" parent="1" source="2K22D86Efe3pXR3erV2T-9" target="2K22D86Efe3pXR3erV2T-3">
          <mxGeometry width="50" height="50" relative="1" as="geometry">
            <mxPoint x="1890" y="350" as="sourcePoint" />
            <mxPoint x="1890" y="460" as="targetPoint" />
          </mxGeometry>
        </mxCell>
        <mxCell id="2K22D86Efe3pXR3erV2T-19" value="0,n" style="text;html=1;align=center;verticalAlign=middle;whiteSpace=wrap;rounded=0;fontSize=18;" vertex="1" parent="1">
          <mxGeometry x="1740" y="270" width="60" height="30" as="geometry" />
        </mxCell>
        <mxCell id="2K22D86Efe3pXR3erV2T-20" value="1,1" style="text;html=1;align=center;verticalAlign=middle;whiteSpace=wrap;rounded=0;fontSize=18;" vertex="1" parent="1">
          <mxGeometry x="1350" y="260" width="60" height="30" as="geometry" />
        </mxCell>
        <mxCell id="2K22D86Efe3pXR3erV2T-21" value="1,n" style="text;html=1;align=center;verticalAlign=middle;whiteSpace=wrap;rounded=0;fontSize=18;" vertex="1" parent="1">
          <mxGeometry x="1300" y="625" width="60" height="30" as="geometry" />
        </mxCell>
        <mxCell id="2K22D86Efe3pXR3erV2T-22" value="n,m" style="text;html=1;align=center;verticalAlign=middle;whiteSpace=wrap;rounded=0;fontSize=18;" vertex="1" parent="1">
          <mxGeometry x="1300" y="390" width="60" height="30" as="geometry" />
        </mxCell>
        <mxCell id="2K22D86Efe3pXR3erV2T-23" value="1,1" style="text;html=1;align=center;verticalAlign=middle;whiteSpace=wrap;rounded=0;fontSize=18;" vertex="1" parent="1">
          <mxGeometry x="1920" y="620" width="60" height="30" as="geometry" />
        </mxCell>
        <mxCell id="2K22D86Efe3pXR3erV2T-24" value="0,n" style="text;html=1;align=center;verticalAlign=middle;whiteSpace=wrap;rounded=0;fontSize=18;" vertex="1" parent="1">
          <mxGeometry x="1910" y="370" width="60" height="30" as="geometry" />
        </mxCell>
        <mxCell id="2K22D86Efe3pXR3erV2T-25" value="1,n" style="text;html=1;align=center;verticalAlign=middle;whiteSpace=wrap;rounded=0;fontSize=18;" vertex="1" parent="1">
          <mxGeometry x="1560" y="220" width="60" height="30" as="geometry" />
        </mxCell>
        <mxCell id="2K22D86Efe3pXR3erV2T-26" value="n,m" style="text;html=1;align=center;verticalAlign=middle;whiteSpace=wrap;rounded=0;fontSize=18;" vertex="1" parent="1">
          <mxGeometry x="1360" y="480" width="60" height="30" as="geometry" />
        </mxCell>
        <mxCell id="2K22D86Efe3pXR3erV2T-27" value="1,n" style="text;html=1;align=center;verticalAlign=middle;whiteSpace=wrap;rounded=0;fontSize=18;" vertex="1" parent="1">
          <mxGeometry x="1960" y="470" width="60" height="30" as="geometry" />
        </mxCell>
        <mxCell id="2K22D86Efe3pXR3erV2T-29" value="&lt;font style=&quot;font-size: 16px;&quot;&gt;Empleado&lt;/font&gt;" style="rounded=0;whiteSpace=wrap;html=1;" vertex="1" parent="1">
          <mxGeometry x="-30" y="1160" width="120" height="60" as="geometry" />
        </mxCell>
        <mxCell id="2K22D86Efe3pXR3erV2T-30" value="&lt;font style=&quot;font-size: 16px;&quot;&gt;Sucursal&lt;/font&gt;&lt;span style=&quot;color: rgba(0, 0, 0, 0); font-family: monospace; font-size: 0px; text-align: start; text-wrap: nowrap;&quot;&gt;%3CmxGraphModel%3E%3Croot%3E%3CmxCell%20id%3D%220%22%2F%3E%3CmxCell%20id%3D%221%22%20parent%3D%220%22%2F%3E%3CmxCell%20id%3D%222%22%20value%3D%22%26lt%3Bfont%20style%3D%26quot%3Bfont-size%3A%2016px%3B%26quot%3B%26gt%3B44%26lt%3B%2Ffont%26gt%3B%22%20style%3D%22rounded%3D0%3BwhiteSpace%3Dwrap%3Bhtml%3D1%3B%22%20vertex%3D%221%22%20parent%3D%221%22%3E%3CmxGeometry%20x%3D%2210%22%20y%3D%221220%22%20width%3D%22120%22%20height%3D%2260%22%20as%3D%22geometry%22%2F%3E%3C%2FmxCell%3E%3C%2Froot%3E%3C%2FmxGraphModel%3E&lt;/span&gt;" style="rounded=0;whiteSpace=wrap;html=1;" vertex="1" parent="1">
          <mxGeometry x="360" y="1370" width="120" height="60" as="geometry" />
        </mxCell>
        <mxCell id="2K22D86Efe3pXR3erV2T-31" value="&lt;font style=&quot;font-size: 16px;&quot;&gt;Producto&lt;/font&gt;" style="rounded=0;whiteSpace=wrap;html=1;" vertex="1" parent="1">
          <mxGeometry x="720" y="1170" width="120" height="60" as="geometry" />
        </mxCell>
        <mxCell id="2K22D86Efe3pXR3erV2T-32" value="&lt;font style=&quot;font-size: 16px;&quot;&gt;Cliente&lt;/font&gt;&lt;span style=&quot;color: rgba(0, 0, 0, 0); font-family: monospace; font-size: 0px; text-align: start; text-wrap: nowrap;&quot;&gt;%3CmxGraphModel%3E%3Croot%3E%3CmxCell%20id%3D%220%22%2F%3E%3CmxCell%20id%3D%221%22%20parent%3D%220%22%2F%3E%3CmxCell%20id%3D%222%22%20value%3D%22%26lt%3Bfont%20style%3D%26quot%3Bfont-size%3A%2016px%3B%26quot%3B%26gt%3B44%26lt%3B%2Ffont%26gt%3B%22%20style%3D%22rounded%3D0%3BwhiteSpace%3Dwrap%3Bhtml%3D1%3B%22%20vertex%3D%221%22%20parent%3D%221%22%3E%3CmxGeometry%20x%3D%2210%22%20y%3D%221220%22%20width%3D%22120%22%20height%3D%2260%22%20as%3D%22geometry%22%2F%3E%3C%2FmxCell%3E%3C%2Froot%3E%3C%2FmxGraphModel%3E&lt;/span&gt;" style="rounded=0;whiteSpace=wrap;html=1;" vertex="1" parent="1">
          <mxGeometry x="-30" y="1540" width="120" height="60" as="geometry" />
        </mxCell>
        <mxCell id="2K22D86Efe3pXR3erV2T-33" value="&lt;font style=&quot;font-size: 16px;&quot;&gt;Tarjeta&lt;/font&gt;" style="rounded=0;whiteSpace=wrap;html=1;" vertex="1" parent="1">
          <mxGeometry x="-30" y="1870" width="120" height="60" as="geometry" />
        </mxCell>
        <mxCell id="2K22D86Efe3pXR3erV2T-34" value="&lt;font style=&quot;font-size: 16px;&quot;&gt;FÃ¡brica&lt;/font&gt;" style="rounded=0;whiteSpace=wrap;html=1;" vertex="1" parent="1">
          <mxGeometry x="720" y="1590" width="120" height="60" as="geometry" />
        </mxCell>
        <mxCell id="2K22D86Efe3pXR3erV2T-35" value="Trabaja" style="rhombus;whiteSpace=wrap;html=1;fontSize=16;rotation=25;" vertex="1" parent="1">
          <mxGeometry x="170" y="1260" width="120" height="80" as="geometry" />
        </mxCell>
        <mxCell id="2K22D86Efe3pXR3erV2T-36" value="Compra" style="rhombus;whiteSpace=wrap;html=1;fontSize=16;rotation=-15;" vertex="1" parent="1">
          <mxGeometry x="156" y="1460" width="120" height="80" as="geometry" />
        </mxCell>
        <mxCell id="2K22D86Efe3pXR3erV2T-37" value="" style="endArrow=none;html=1;rounded=0;exitX=1;exitY=1;exitDx=0;exitDy=0;entryX=0;entryY=0.5;entryDx=0;entryDy=0;" edge="1" parent="1" source="2K22D86Efe3pXR3erV2T-29" target="2K22D86Efe3pXR3erV2T-35">
          <mxGeometry width="50" height="50" relative="1" as="geometry">
            <mxPoint x="360" y="1410" as="sourcePoint" />
            <mxPoint x="410" y="1360" as="targetPoint" />
          </mxGeometry>
        </mxCell>
        <mxCell id="2K22D86Efe3pXR3erV2T-38" value="" style="endArrow=none;html=1;rounded=0;exitX=1;exitY=0.5;exitDx=0;exitDy=0;entryX=0;entryY=0;entryDx=0;entryDy=0;" edge="1" parent="1" source="2K22D86Efe3pXR3erV2T-35" target="2K22D86Efe3pXR3erV2T-30">
          <mxGeometry width="50" height="50" relative="1" as="geometry">
            <mxPoint x="100" y="1230" as="sourcePoint" />
            <mxPoint x="197" y="1295" as="targetPoint" />
          </mxGeometry>
        </mxCell>
        <mxCell id="2K22D86Efe3pXR3erV2T-39" value="1,n" style="text;html=1;align=center;verticalAlign=middle;whiteSpace=wrap;rounded=0;fontSize=16;" vertex="1" parent="1">
          <mxGeometry x="320" y="1310" width="60" height="30" as="geometry" />
        </mxCell>
        <mxCell id="2K22D86Efe3pXR3erV2T-40" value="n,m" style="text;html=1;align=center;verticalAlign=middle;whiteSpace=wrap;rounded=0;fontSize=16;" vertex="1" parent="1">
          <mxGeometry x="60" y="1260" width="60" height="30" as="geometry" />
        </mxCell>
        <mxCell id="2K22D86Efe3pXR3erV2T-41" value="produce" style="rhombus;whiteSpace=wrap;html=1;fontSize=16;rotation=0;" vertex="1" parent="1">
          <mxGeometry x="720" y="1380" width="120" height="80" as="geometry" />
        </mxCell>
        <mxCell id="2K22D86Efe3pXR3erV2T-42" value="" style="endArrow=none;html=1;rounded=0;exitX=0.5;exitY=1;exitDx=0;exitDy=0;entryX=0.5;entryY=0;entryDx=0;entryDy=0;" edge="1" parent="1" source="2K22D86Efe3pXR3erV2T-31" target="2K22D86Efe3pXR3erV2T-41">
          <mxGeometry width="50" height="50" relative="1" as="geometry">
            <mxPoint x="305" y="1345" as="sourcePoint" />
            <mxPoint x="420" y="1400" as="targetPoint" />
          </mxGeometry>
        </mxCell>
        <mxCell id="2K22D86Efe3pXR3erV2T-44" value="" style="endArrow=none;html=1;rounded=0;exitX=0.5;exitY=1;exitDx=0;exitDy=0;entryX=0.5;entryY=0;entryDx=0;entryDy=0;" edge="1" parent="1" source="2K22D86Efe3pXR3erV2T-41" target="2K22D86Efe3pXR3erV2T-34">
          <mxGeometry width="50" height="50" relative="1" as="geometry">
            <mxPoint x="790" y="1240" as="sourcePoint" />
            <mxPoint x="790" y="1390" as="targetPoint" />
          </mxGeometry>
        </mxCell>
        <mxCell id="2K22D86Efe3pXR3erV2T-45" value="1,1" style="text;html=1;align=center;verticalAlign=middle;whiteSpace=wrap;rounded=0;fontSize=16;" vertex="1" parent="1">
          <mxGeometry x="800" y="1295" width="60" height="30" as="geometry" />
        </mxCell>
        <mxCell id="2K22D86Efe3pXR3erV2T-46" value="1,1" style="text;html=1;align=center;verticalAlign=middle;whiteSpace=wrap;rounded=0;fontSize=16;" vertex="1" parent="1">
          <mxGeometry x="710" y="1510" width="60" height="30" as="geometry" />
        </mxCell>
        <mxCell id="2K22D86Efe3pXR3erV2T-47" value="Vende" style="rhombus;whiteSpace=wrap;html=1;fontSize=16;rotation=-30;" vertex="1" parent="1">
          <mxGeometry x="540" y="1260" width="120" height="80" as="geometry" />
        </mxCell>
        <mxCell id="2K22D86Efe3pXR3erV2T-48" value="" style="endArrow=none;html=1;rounded=0;exitX=0;exitY=1;exitDx=0;exitDy=0;entryX=1;entryY=0.5;entryDx=0;entryDy=0;" edge="1" parent="1" source="2K22D86Efe3pXR3erV2T-31" target="2K22D86Efe3pXR3erV2T-47">
          <mxGeometry width="50" height="50" relative="1" as="geometry">
            <mxPoint x="100" y="1230" as="sourcePoint" />
            <mxPoint x="186" y="1285" as="targetPoint" />
          </mxGeometry>
        </mxCell>
        <mxCell id="2K22D86Efe3pXR3erV2T-49" value="" style="endArrow=none;html=1;rounded=0;exitX=0;exitY=0.5;exitDx=0;exitDy=0;entryX=1;entryY=0;entryDx=0;entryDy=0;" edge="1" parent="1" source="2K22D86Efe3pXR3erV2T-47" target="2K22D86Efe3pXR3erV2T-30">
          <mxGeometry width="50" height="50" relative="1" as="geometry">
            <mxPoint x="730" y="1240" as="sourcePoint" />
            <mxPoint x="666" y="1281" as="targetPoint" />
          </mxGeometry>
        </mxCell>
        <mxCell id="2K22D86Efe3pXR3erV2T-50" value="1,n" style="text;html=1;align=center;verticalAlign=middle;whiteSpace=wrap;rounded=0;fontSize=16;" vertex="1" parent="1">
          <mxGeometry x="470" y="1295" width="60" height="30" as="geometry" />
        </mxCell>
        <mxCell id="2K22D86Efe3pXR3erV2T-51" value="1,n" style="text;html=1;align=center;verticalAlign=middle;whiteSpace=wrap;rounded=0;fontSize=16;" vertex="1" parent="1">
          <mxGeometry x="682.5" y="1260" width="60" height="30" as="geometry" />
        </mxCell>
        <mxCell id="2K22D86Efe3pXR3erV2T-52" value="Usa" style="rhombus;whiteSpace=wrap;html=1;fontSize=16;" vertex="1" parent="1">
          <mxGeometry x="-30" y="1700" width="120" height="80" as="geometry" />
        </mxCell>
        <mxCell id="2K22D86Efe3pXR3erV2T-53" value="" style="endArrow=none;html=1;rounded=0;exitX=0.5;exitY=1;exitDx=0;exitDy=0;entryX=0.5;entryY=0;entryDx=0;entryDy=0;" edge="1" parent="1" source="2K22D86Efe3pXR3erV2T-32" target="2K22D86Efe3pXR3erV2T-52">
          <mxGeometry width="50" height="50" relative="1" as="geometry">
            <mxPoint x="100" y="1230" as="sourcePoint" />
            <mxPoint x="186" y="1285" as="targetPoint" />
          </mxGeometry>
        </mxCell>
        <mxCell id="2K22D86Efe3pXR3erV2T-54" value="" style="endArrow=none;html=1;rounded=0;exitX=0.5;exitY=1;exitDx=0;exitDy=0;entryX=0.5;entryY=0;entryDx=0;entryDy=0;" edge="1" parent="1" source="2K22D86Efe3pXR3erV2T-52" target="2K22D86Efe3pXR3erV2T-33">
          <mxGeometry width="50" height="50" relative="1" as="geometry">
            <mxPoint x="40" y="1610" as="sourcePoint" />
            <mxPoint x="40" y="1710" as="targetPoint" />
          </mxGeometry>
        </mxCell>
        <mxCell id="2K22D86Efe3pXR3erV2T-55" value="1,n" style="text;html=1;align=center;verticalAlign=middle;whiteSpace=wrap;rounded=0;fontSize=16;" vertex="1" parent="1">
          <mxGeometry x="40" y="1810" width="60" height="30" as="geometry" />
        </mxCell>
        <mxCell id="2K22D86Efe3pXR3erV2T-56" value="1,n" style="text;html=1;align=center;verticalAlign=middle;whiteSpace=wrap;rounded=0;fontSize=16;" vertex="1" parent="1">
          <mxGeometry x="-40" y="1640" width="60" height="30" as="geometry" />
        </mxCell>
        <mxCell id="2K22D86Efe3pXR3erV2T-57" value="" style="endArrow=none;html=1;rounded=0;exitX=1;exitY=0;exitDx=0;exitDy=0;entryX=0;entryY=0.5;entryDx=0;entryDy=0;" edge="1" parent="1" source="2K22D86Efe3pXR3erV2T-32" target="2K22D86Efe3pXR3erV2T-36">
          <mxGeometry width="50" height="50" relative="1" as="geometry">
            <mxPoint x="100" y="1230" as="sourcePoint" />
            <mxPoint x="186" y="1285" as="targetPoint" />
          </mxGeometry>
        </mxCell>
        <mxCell id="2K22D86Efe3pXR3erV2T-58" value="" style="endArrow=none;html=1;rounded=0;exitX=1;exitY=0.5;exitDx=0;exitDy=0;entryX=0;entryY=1;entryDx=0;entryDy=0;" edge="1" parent="1" source="2K22D86Efe3pXR3erV2T-36" target="2K22D86Efe3pXR3erV2T-30">
          <mxGeometry width="50" height="50" relative="1" as="geometry">
            <mxPoint x="100" y="1550" as="sourcePoint" />
            <mxPoint x="168" y="1526" as="targetPoint" />
          </mxGeometry>
        </mxCell>
        <mxCell id="2K22D86Efe3pXR3erV2T-59" value="1,1" style="text;html=1;align=center;verticalAlign=middle;whiteSpace=wrap;rounded=0;fontSize=16;" vertex="1" parent="1">
          <mxGeometry x="260" y="1410" width="60" height="30" as="geometry" />
        </mxCell>
        <mxCell id="2K22D86Efe3pXR3erV2T-60" value="0,n" style="text;html=1;align=center;verticalAlign=middle;whiteSpace=wrap;rounded=0;fontSize=16;" vertex="1" parent="1">
          <mxGeometry x="96" y="1540" width="60" height="30" as="geometry" />
        </mxCell>
        <mxCell id="2K22D86Efe3pXR3erV2T-61" value="1:1" style="text;html=1;align=center;verticalAlign=middle;whiteSpace=wrap;rounded=0;fontSize=20;fontStyle=1" vertex="1" parent="1">
          <mxGeometry x="860" y="1405" width="60" height="30" as="geometry" />
        </mxCell>
        <mxCell id="2K22D86Efe3pXR3erV2T-62" value="N:M" style="text;html=1;align=center;verticalAlign=middle;whiteSpace=wrap;rounded=0;fontSize=20;fontStyle=1" vertex="1" parent="1">
          <mxGeometry x="110" y="1720" width="60" height="30" as="geometry" />
        </mxCell>
        <mxCell id="2K22D86Efe3pXR3erV2T-63" value="1:N" style="text;html=1;align=center;verticalAlign=middle;whiteSpace=wrap;rounded=0;fontSize=20;fontStyle=1" vertex="1" parent="1">
          <mxGeometry x="170" y="1420" width="60" height="30" as="geometry" />
        </mxCell>
        <mxCell id="2K22D86Efe3pXR3erV2T-64" value="N:M" style="text;html=1;align=center;verticalAlign=middle;whiteSpace=wrap;rounded=0;fontSize=20;fontStyle=1" vertex="1" parent="1">
          <mxGeometry x="230" y="1210" width="60" height="30" as="geometry" />
        </mxCell>
        <mxCell id="2K22D86Efe3pXR3erV2T-65" value="N:M" style="text;html=1;align=center;verticalAlign=middle;whiteSpace=wrap;rounded=0;fontSize=20;fontStyle=1" vertex="1" parent="1">
          <mxGeometry x="550" y="1220" width="60" height="30" as="geometry" />
        </mxCell>
        <mxCell id="2K22D86Efe3pXR3erV2T-66" value="&lt;font style=&quot;font-size: 16px;&quot;&gt;Libro&lt;/font&gt;" style="rounded=0;whiteSpace=wrap;html=1;" vertex="1" parent="1">
          <mxGeometry x="1630" y="1220" width="120" height="60" as="geometry" />
        </mxCell>
        <mxCell id="2K22D86Efe3pXR3erV2T-67" value="&lt;font style=&quot;font-size: 16px;&quot;&gt;Autor&lt;/font&gt;" style="rounded=0;whiteSpace=wrap;html=1;" vertex="1" parent="1">
          <mxGeometry x="2160" y="1220" width="120" height="60" as="geometry" />
        </mxCell>
        <mxCell id="2K22D86Efe3pXR3erV2T-68" value="&lt;span style=&quot;font-size: 16px;&quot;&gt;Edicion&lt;/span&gt;" style="rounded=0;whiteSpace=wrap;html=1;" vertex="1" parent="1">
          <mxGeometry x="1630" y="1590" width="120" height="60" as="geometry" />
        </mxCell>
        <mxCell id="2K22D86Efe3pXR3erV2T-69" value="&lt;font style=&quot;font-size: 16px;&quot;&gt;PrÃ©stamo&lt;/font&gt;" style="rounded=0;whiteSpace=wrap;html=1;" vertex="1" parent="1">
          <mxGeometry x="1200" y="930" width="120" height="60" as="geometry" />
        </mxCell>
        <mxCell id="2K22D86Efe3pXR3erV2T-70" value="&lt;font style=&quot;font-size: 16px;&quot;&gt;Usuario&lt;/font&gt;" style="rounded=0;whiteSpace=wrap;html=1;" vertex="1" parent="1">
          <mxGeometry x="1726" y="930" width="120" height="60" as="geometry" />
        </mxCell>
        <mxCell id="2K22D86Efe3pXR3erV2T-71" value="escribe" style="rhombus;whiteSpace=wrap;html=1;fontSize=16;rotation=0;" vertex="1" parent="1">
          <mxGeometry x="1890" y="1210" width="120" height="80" as="geometry" />
        </mxCell>
        <mxCell id="2K22D86Efe3pXR3erV2T-72" value="" style="endArrow=none;html=1;rounded=0;exitX=1;exitY=0.5;exitDx=0;exitDy=0;entryX=0;entryY=0.5;entryDx=0;entryDy=0;" edge="1" parent="1" source="2K22D86Efe3pXR3erV2T-66" target="2K22D86Efe3pXR3erV2T-71">
          <mxGeometry width="50" height="50" relative="1" as="geometry">
            <mxPoint x="1000" y="1310" as="sourcePoint" />
            <mxPoint x="1000" y="1460" as="targetPoint" />
          </mxGeometry>
        </mxCell>
        <mxCell id="2K22D86Efe3pXR3erV2T-73" value="" style="endArrow=none;html=1;rounded=0;entryX=1;entryY=0.5;entryDx=0;entryDy=0;exitX=0;exitY=0.5;exitDx=0;exitDy=0;" edge="1" parent="1" source="2K22D86Efe3pXR3erV2T-67" target="2K22D86Efe3pXR3erV2T-71">
          <mxGeometry width="50" height="50" relative="1" as="geometry">
            <mxPoint x="2150" y="1270" as="sourcePoint" />
            <mxPoint x="1900" y="1260" as="targetPoint" />
          </mxGeometry>
        </mxCell>
        <mxCell id="2K22D86Efe3pXR3erV2T-74" value="1,n" style="text;html=1;align=center;verticalAlign=middle;whiteSpace=wrap;rounded=0;fontSize=16;" vertex="1" parent="1">
          <mxGeometry x="2080" y="1210" width="60" height="30" as="geometry" />
        </mxCell>
        <mxCell id="2K22D86Efe3pXR3erV2T-75" value="1,n" style="text;html=1;align=center;verticalAlign=middle;whiteSpace=wrap;rounded=0;fontSize=16;" vertex="1" parent="1">
          <mxGeometry x="1760" y="1255" width="60" height="30" as="geometry" />
        </mxCell>
        <mxCell id="2K22D86Efe3pXR3erV2T-76" value="N:M" style="text;html=1;align=center;verticalAlign=middle;whiteSpace=wrap;rounded=0;fontSize=20;fontStyle=1" vertex="1" parent="1">
          <mxGeometry x="1920" y="1160" width="60" height="30" as="geometry" />
        </mxCell>
        <mxCell id="2K22D86Efe3pXR3erV2T-77" value="tiene" style="rhombus;whiteSpace=wrap;html=1;fontSize=16;rotation=0;" vertex="1" parent="1">
          <mxGeometry x="1630" y="1395" width="120" height="80" as="geometry" />
        </mxCell>
        <mxCell id="2K22D86Efe3pXR3erV2T-78" value="" style="endArrow=none;html=1;rounded=0;exitX=0.5;exitY=1;exitDx=0;exitDy=0;entryX=0.5;entryY=0;entryDx=0;entryDy=0;" edge="1" parent="1" source="2K22D86Efe3pXR3erV2T-66" target="2K22D86Efe3pXR3erV2T-77">
          <mxGeometry width="50" height="50" relative="1" as="geometry">
            <mxPoint x="1760" y="1260" as="sourcePoint" />
            <mxPoint x="1980" y="1260" as="targetPoint" />
          </mxGeometry>
        </mxCell>
        <mxCell id="2K22D86Efe3pXR3erV2T-79" value="" style="endArrow=none;html=1;rounded=0;exitX=0.5;exitY=1;exitDx=0;exitDy=0;" edge="1" parent="1" source="2K22D86Efe3pXR3erV2T-77" target="2K22D86Efe3pXR3erV2T-68">
          <mxGeometry width="50" height="50" relative="1" as="geometry">
            <mxPoint x="1700" y="1290" as="sourcePoint" />
            <mxPoint x="1700" y="1405" as="targetPoint" />
          </mxGeometry>
        </mxCell>
        <mxCell id="2K22D86Efe3pXR3erV2T-80" value="1,n" style="text;html=1;align=center;verticalAlign=middle;whiteSpace=wrap;rounded=0;fontSize=16;" vertex="1" parent="1">
          <mxGeometry x="1710" y="1520" width="60" height="30" as="geometry" />
        </mxCell>
        <mxCell id="2K22D86Efe3pXR3erV2T-81" value="1,1" style="text;html=1;align=center;verticalAlign=middle;whiteSpace=wrap;rounded=0;fontSize=16;" vertex="1" parent="1">
          <mxGeometry x="1620" y="1330" width="60" height="30" as="geometry" />
        </mxCell>
        <mxCell id="2K22D86Efe3pXR3erV2T-83" value="1:N" style="text;html=1;align=center;verticalAlign=middle;whiteSpace=wrap;rounded=0;fontSize=20;fontStyle=1" vertex="1" parent="1">
          <mxGeometry x="1760" y="1420" width="60" height="30" as="geometry" />
        </mxCell>
        <mxCell id="2K22D86Efe3pXR3erV2T-85" value="es de" style="rhombus;whiteSpace=wrap;html=1;fontSize=16;rotation=0;" vertex="1" parent="1">
          <mxGeometry x="1200" y="1315" width="120" height="80" as="geometry" />
        </mxCell>
        <mxCell id="2K22D86Efe3pXR3erV2T-86" value="pide" style="rhombus;whiteSpace=wrap;html=1;fontSize=16;rotation=0;" vertex="1" parent="1">
          <mxGeometry x="1490" y="920" width="120" height="80" as="geometry" />
        </mxCell>
        <mxCell id="2K22D86Efe3pXR3erV2T-87" value="" style="endArrow=none;html=1;rounded=0;exitX=0.5;exitY=1;exitDx=0;exitDy=0;entryX=0.5;entryY=0;entryDx=0;entryDy=0;" edge="1" parent="1" source="2K22D86Efe3pXR3erV2T-69" target="2K22D86Efe3pXR3erV2T-85">
          <mxGeometry width="50" height="50" relative="1" as="geometry">
            <mxPoint x="1770" y="1465" as="sourcePoint" />
            <mxPoint x="1820" y="1415" as="targetPoint" />
          </mxGeometry>
        </mxCell>
        <mxCell id="2K22D86Efe3pXR3erV2T-88" value="" style="endArrow=none;html=1;rounded=0;exitX=0.5;exitY=1;exitDx=0;exitDy=0;entryX=0.5;entryY=0;entryDx=0;entryDy=0;" edge="1" parent="1" source="2K22D86Efe3pXR3erV2T-85" target="2K22D86Efe3pXR3erV2T-105">
          <mxGeometry width="50" height="50" relative="1" as="geometry">
            <mxPoint x="1430" y="1060" as="sourcePoint" />
            <mxPoint x="1494" y="1111" as="targetPoint" />
          </mxGeometry>
        </mxCell>
        <mxCell id="2K22D86Efe3pXR3erV2T-89" value="0,n" style="text;html=1;align=center;verticalAlign=middle;whiteSpace=wrap;rounded=0;fontSize=16;" vertex="1" parent="1">
          <mxGeometry x="1202" y="1010" width="60" height="30" as="geometry" />
        </mxCell>
        <mxCell id="2K22D86Efe3pXR3erV2T-90" value="1,n" style="text;html=1;align=center;verticalAlign=middle;whiteSpace=wrap;rounded=0;fontSize=16;" vertex="1" parent="1">
          <mxGeometry x="1262" y="1515" width="60" height="30" as="geometry" />
        </mxCell>
        <mxCell id="2K22D86Efe3pXR3erV2T-91" value="N:M" style="text;html=1;align=center;verticalAlign=middle;whiteSpace=wrap;rounded=0;fontSize=20;fontStyle=1" vertex="1" parent="1">
          <mxGeometry x="1338" y="1340" width="60" height="30" as="geometry" />
        </mxCell>
        <mxCell id="2K22D86Efe3pXR3erV2T-92" value="" style="endArrow=none;html=1;rounded=0;exitX=1;exitY=0.5;exitDx=0;exitDy=0;entryX=0;entryY=0.5;entryDx=0;entryDy=0;" edge="1" parent="1" source="2K22D86Efe3pXR3erV2T-86" target="2K22D86Efe3pXR3erV2T-70">
          <mxGeometry width="50" height="50" relative="1" as="geometry">
            <mxPoint x="1660" y="871" as="sourcePoint" />
            <mxPoint x="1714" y="912" as="targetPoint" />
          </mxGeometry>
        </mxCell>
        <mxCell id="2K22D86Efe3pXR3erV2T-93" value="1,1" style="text;html=1;align=center;verticalAlign=middle;whiteSpace=wrap;rounded=0;fontSize=16;" vertex="1" parent="1">
          <mxGeometry x="1650" y="916" width="60" height="30" as="geometry" />
        </mxCell>
        <mxCell id="2K22D86Efe3pXR3erV2T-95" value="" style="endArrow=none;html=1;rounded=0;entryX=0;entryY=0.5;entryDx=0;entryDy=0;exitX=1;exitY=0.5;exitDx=0;exitDy=0;" edge="1" parent="1" source="2K22D86Efe3pXR3erV2T-69" target="2K22D86Efe3pXR3erV2T-86">
          <mxGeometry width="50" height="50" relative="1" as="geometry">
            <mxPoint x="1420" y="1020" as="sourcePoint" />
            <mxPoint x="1610" y="1019.4100000000001" as="targetPoint" />
          </mxGeometry>
        </mxCell>
        <mxCell id="2K22D86Efe3pXR3erV2T-96" value="1,n" style="text;html=1;align=center;verticalAlign=middle;whiteSpace=wrap;rounded=0;fontSize=16;" vertex="1" parent="1">
          <mxGeometry x="1340" y="970" width="60" height="30" as="geometry" />
        </mxCell>
        <mxCell id="2K22D86Efe3pXR3erV2T-98" value="1:N" style="text;html=1;align=center;verticalAlign=middle;whiteSpace=wrap;rounded=0;fontSize=20;fontStyle=1" vertex="1" parent="1">
          <mxGeometry x="1526" y="870" width="60" height="30" as="geometry" />
        </mxCell>
        <mxCell id="2K22D86Efe3pXR3erV2T-100" value="tiene" style="rhombus;whiteSpace=wrap;html=1;fontSize=16;rotation=0;" vertex="1" parent="1">
          <mxGeometry x="1410" y="1580" width="120" height="80" as="geometry" />
        </mxCell>
        <mxCell id="2K22D86Efe3pXR3erV2T-104" value="" style="endArrow=none;html=1;rounded=0;exitX=1;exitY=0.5;exitDx=0;exitDy=0;entryX=0;entryY=0.5;entryDx=0;entryDy=0;" edge="1" parent="1" source="2K22D86Efe3pXR3erV2T-100" target="2K22D86Efe3pXR3erV2T-68">
          <mxGeometry width="50" height="50" relative="1" as="geometry">
            <mxPoint x="1700" y="1485" as="sourcePoint" />
            <mxPoint x="1700" y="1600" as="targetPoint" />
          </mxGeometry>
        </mxCell>
        <mxCell id="2K22D86Efe3pXR3erV2T-105" value="&lt;span style=&quot;font-size: 16px;&quot;&gt;Copia&lt;/span&gt;" style="rounded=0;whiteSpace=wrap;html=1;" vertex="1" parent="1">
          <mxGeometry x="1200" y="1590" width="120" height="60" as="geometry" />
        </mxCell>
        <mxCell id="2K22D86Efe3pXR3erV2T-106" value="" style="endArrow=none;html=1;rounded=0;exitX=1;exitY=0.5;exitDx=0;exitDy=0;entryX=0;entryY=0.5;entryDx=0;entryDy=0;" edge="1" parent="1" source="2K22D86Efe3pXR3erV2T-105" target="2K22D86Efe3pXR3erV2T-100">
          <mxGeometry width="50" height="50" relative="1" as="geometry">
            <mxPoint x="1540" y="1630" as="sourcePoint" />
            <mxPoint x="1640" y="1630" as="targetPoint" />
          </mxGeometry>
        </mxCell>
        <mxCell id="2K22D86Efe3pXR3erV2T-108" value="1,1" style="text;html=1;align=center;verticalAlign=middle;whiteSpace=wrap;rounded=0;fontSize=16;" vertex="1" parent="1">
          <mxGeometry x="1550" y="1580" width="60" height="30" as="geometry" />
        </mxCell>
        <mxCell id="2K22D86Efe3pXR3erV2T-109" value="1,n" style="text;html=1;align=center;verticalAlign=middle;whiteSpace=wrap;rounded=0;fontSize=16;" vertex="1" parent="1">
          <mxGeometry x="1330" y="1640" width="60" height="30" as="geometry" />
        </mxCell>
        <mxCell id="2K22D86Efe3pXR3erV2T-110" value="1:N" style="text;html=1;align=center;verticalAlign=middle;whiteSpace=wrap;rounded=0;fontSize=20;fontStyle=1" vertex="1" parent="1">
          <mxGeometry x="1450" y="1530" width="60" height="30" as="geometry" />
        </mxCell>
        <mxCell id="2K22D86Efe3pXR3erV2T-112" value="referencia" style="rhombus;whiteSpace=wrap;html=1;fontSize=16;rotation=0;" vertex="1" parent="1">
          <mxGeometry x="1430" y="1090" width="120" height="80" as="geometry" />
        </mxCell>
        <mxCell id="2K22D86Efe3pXR3erV2T-113" value="" style="endArrow=none;html=1;rounded=0;entryX=1;entryY=0.5;entryDx=0;entryDy=0;" edge="1" parent="1" target="2K22D86Efe3pXR3erV2T-112">
          <mxGeometry width="50" height="50" relative="1" as="geometry">
            <mxPoint x="1630" y="1220" as="sourcePoint" />
            <mxPoint x="1700" y="1405" as="targetPoint" />
          </mxGeometry>
        </mxCell>
        <mxCell id="2K22D86Efe3pXR3erV2T-114" value="" style="endArrow=none;html=1;rounded=0;entryX=0.5;entryY=1;entryDx=0;entryDy=0;exitX=0;exitY=0.75;exitDx=0;exitDy=0;" edge="1" parent="1" source="2K22D86Efe3pXR3erV2T-66" target="2K22D86Efe3pXR3erV2T-112">
          <mxGeometry width="50" height="50" relative="1" as="geometry">
            <mxPoint x="1640" y="1230" as="sourcePoint" />
            <mxPoint x="1560" y="1140" as="targetPoint" />
            <Array as="points">
              <mxPoint x="1490" y="1260" />
            </Array>
          </mxGeometry>
        </mxCell>
        <mxCell id="2K22D86Efe3pXR3erV2T-115" value="0,1" style="text;html=1;align=center;verticalAlign=middle;whiteSpace=wrap;rounded=0;fontSize=16;" vertex="1" parent="1">
          <mxGeometry x="1586" y="1140" width="60" height="30" as="geometry" />
        </mxCell>
        <mxCell id="2K22D86Efe3pXR3erV2T-116" value="0,1" style="text;html=1;align=center;verticalAlign=middle;whiteSpace=wrap;rounded=0;fontSize=16;" vertex="1" parent="1">
          <mxGeometry x="1440" y="1230" width="60" height="30" as="geometry" />
        </mxCell>
        <mxCell id="2K22D86Efe3pXR3erV2T-118" value="1:1" style="text;html=1;align=center;verticalAlign=middle;whiteSpace=wrap;rounded=0;fontSize=20;fontStyle=1" vertex="1" parent="1">
          <mxGeometry x="1466" y="1050" width="60" height="30" as="geometry" />
        </mxCell>
        <mxCell id="2K22D86Efe3pXR3erV2T-119" value="&lt;span style=&quot;font-size: 16px;&quot;&gt;Farmacia&lt;/span&gt;" style="rounded=0;whiteSpace=wrap;html=1;" vertex="1" parent="1">
          <mxGeometry x="440" y="2360" width="120" height="60" as="geometry" />
        </mxCell>
        <mxCell id="2K22D86Efe3pXR3erV2T-120" value="vende" style="rhombus;whiteSpace=wrap;html=1;fontSize=16;rotation=0;" vertex="1" parent="1">
          <mxGeometry x="682.5" y="2350" width="120" height="80" as="geometry" />
        </mxCell>
        <mxCell id="2K22D86Efe3pXR3erV2T-121" value="&lt;span style=&quot;font-size: 16px;&quot;&gt;Ciudad&lt;/span&gt;" style="rounded=0;whiteSpace=wrap;html=1;" vertex="1" parent="1">
          <mxGeometry x="-80" y="2360" width="120" height="60" as="geometry" />
        </mxCell>
        <mxCell id="2K22D86Efe3pXR3erV2T-125" value="&lt;span style=&quot;font-size: 16px;&quot;&gt;Propietario&lt;/span&gt;" style="rounded=0;whiteSpace=wrap;html=1;" vertex="1" parent="1">
          <mxGeometry x="440" y="2720" width="120" height="60" as="geometry" />
        </mxCell>
        <mxCell id="2K22D86Efe3pXR3erV2T-126" value="&lt;span style=&quot;font-size: 16px;&quot;&gt;Medicamento&lt;/span&gt;" style="rounded=0;whiteSpace=wrap;html=1;" vertex="1" parent="1">
          <mxGeometry x="950" y="2360" width="120" height="60" as="geometry" />
        </mxCell>
        <mxCell id="2K22D86Efe3pXR3erV2T-127" value="ubica" style="rhombus;whiteSpace=wrap;html=1;fontSize=16;rotation=0;" vertex="1" parent="1">
          <mxGeometry x="190" y="2350" width="120" height="80" as="geometry" />
        </mxCell>
        <mxCell id="2K22D86Efe3pXR3erV2T-128" value="tiene" style="rhombus;whiteSpace=wrap;html=1;fontSize=16;rotation=0;" vertex="1" parent="1">
          <mxGeometry x="440" y="2520" width="120" height="80" as="geometry" />
        </mxCell>
        <mxCell id="2K22D86Efe3pXR3erV2T-129" value="" style="endArrow=none;html=1;rounded=0;entryX=0.5;entryY=1;entryDx=0;entryDy=0;exitX=0.5;exitY=0;exitDx=0;exitDy=0;" edge="1" parent="1" source="2K22D86Efe3pXR3erV2T-128" target="2K22D86Efe3pXR3erV2T-119">
          <mxGeometry width="50" height="50" relative="1" as="geometry">
            <mxPoint x="390" y="2500" as="sourcePoint" />
            <mxPoint x="440" y="2450" as="targetPoint" />
          </mxGeometry>
        </mxCell>
        <mxCell id="2K22D86Efe3pXR3erV2T-130" value="" style="endArrow=none;html=1;rounded=0;entryX=0.5;entryY=1;entryDx=0;entryDy=0;exitX=0.5;exitY=0;exitDx=0;exitDy=0;" edge="1" parent="1" source="2K22D86Efe3pXR3erV2T-125" target="2K22D86Efe3pXR3erV2T-128">
          <mxGeometry width="50" height="50" relative="1" as="geometry">
            <mxPoint x="510" y="2550" as="sourcePoint" />
            <mxPoint x="510" y="2430" as="targetPoint" />
          </mxGeometry>
        </mxCell>
        <mxCell id="2K22D86Efe3pXR3erV2T-131" value="" style="endArrow=none;html=1;rounded=0;entryX=1;entryY=0.5;entryDx=0;entryDy=0;exitX=0;exitY=0.5;exitDx=0;exitDy=0;" edge="1" parent="1" source="2K22D86Efe3pXR3erV2T-119" target="2K22D86Efe3pXR3erV2T-127">
          <mxGeometry width="50" height="50" relative="1" as="geometry">
            <mxPoint x="510" y="2730" as="sourcePoint" />
            <mxPoint x="510" y="2610" as="targetPoint" />
          </mxGeometry>
        </mxCell>
        <mxCell id="2K22D86Efe3pXR3erV2T-132" value="" style="endArrow=none;html=1;rounded=0;entryX=1;entryY=0.5;entryDx=0;entryDy=0;exitX=0;exitY=0.5;exitDx=0;exitDy=0;" edge="1" parent="1" source="2K22D86Efe3pXR3erV2T-127" target="2K22D86Efe3pXR3erV2T-121">
          <mxGeometry width="50" height="50" relative="1" as="geometry">
            <mxPoint x="450" y="2400" as="sourcePoint" />
            <mxPoint x="320" y="2400" as="targetPoint" />
          </mxGeometry>
        </mxCell>
        <mxCell id="2K22D86Efe3pXR3erV2T-133" value="" style="endArrow=none;html=1;rounded=0;entryX=1;entryY=0.5;entryDx=0;entryDy=0;exitX=0;exitY=0.5;exitDx=0;exitDy=0;fontStyle=1" edge="1" parent="1" source="2K22D86Efe3pXR3erV2T-120" target="2K22D86Efe3pXR3erV2T-119">
          <mxGeometry width="50" height="50" relative="1" as="geometry">
            <mxPoint x="460" y="2410" as="sourcePoint" />
            <mxPoint x="330" y="2410" as="targetPoint" />
          </mxGeometry>
        </mxCell>
        <mxCell id="2K22D86Efe3pXR3erV2T-134" value="" style="endArrow=none;html=1;rounded=0;entryX=1;entryY=0.5;entryDx=0;entryDy=0;exitX=0;exitY=0.5;exitDx=0;exitDy=0;" edge="1" parent="1" source="2K22D86Efe3pXR3erV2T-126" target="2K22D86Efe3pXR3erV2T-120">
          <mxGeometry width="50" height="50" relative="1" as="geometry">
            <mxPoint x="470" y="2420" as="sourcePoint" />
            <mxPoint x="340" y="2420" as="targetPoint" />
          </mxGeometry>
        </mxCell>
        <mxCell id="2K22D86Efe3pXR3erV2T-135" value="1,1" style="text;html=1;align=center;verticalAlign=middle;whiteSpace=wrap;rounded=0;fontSize=16;" vertex="1" parent="1">
          <mxGeometry x="50" y="2420" width="60" height="30" as="geometry" />
        </mxCell>
        <mxCell id="2K22D86Efe3pXR3erV2T-136" value="1:N" style="text;html=1;align=center;verticalAlign=middle;whiteSpace=wrap;rounded=0;fontSize=20;fontStyle=1" vertex="1" parent="1">
          <mxGeometry x="230" y="2290" width="60" height="30" as="geometry" />
        </mxCell>
        <mxCell id="2K22D86Efe3pXR3erV2T-137" value="0,n" style="text;html=1;align=center;verticalAlign=middle;whiteSpace=wrap;rounded=0;fontSize=16;" vertex="1" parent="1">
          <mxGeometry x="360" y="2345" width="60" height="30" as="geometry" />
        </mxCell>
        <mxCell id="2K22D86Efe3pXR3erV2T-138" value="0,n" style="text;html=1;align=center;verticalAlign=middle;whiteSpace=wrap;rounded=0;fontSize=16;" vertex="1" parent="1">
          <mxGeometry x="880" y="2330" width="60" height="30" as="geometry" />
        </mxCell>
        <mxCell id="2K22D86Efe3pXR3erV2T-139" value="0,n" style="text;html=1;align=center;verticalAlign=middle;whiteSpace=wrap;rounded=0;fontSize=16;" vertex="1" parent="1">
          <mxGeometry x="570" y="2400" width="60" height="30" as="geometry" />
        </mxCell>
        <mxCell id="2K22D86Efe3pXR3erV2T-141" value="N:M" style="text;html=1;align=center;verticalAlign=middle;whiteSpace=wrap;rounded=0;fontSize=20;fontStyle=1" vertex="1" parent="1">
          <mxGeometry x="712.5" y="2300" width="60" height="30" as="geometry" />
        </mxCell>
        <mxCell id="2K22D86Efe3pXR3erV2T-142" value="0,1" style="text;html=1;align=center;verticalAlign=middle;whiteSpace=wrap;rounded=0;fontSize=16;" vertex="1" parent="1">
          <mxGeometry x="440" y="2450" width="60" height="30" as="geometry" />
        </mxCell>
        <mxCell id="2K22D86Efe3pXR3erV2T-143" value="0,1" style="text;html=1;align=center;verticalAlign=middle;whiteSpace=wrap;rounded=0;fontSize=16;" vertex="1" parent="1">
          <mxGeometry x="527.5" y="2670" width="60" height="30" as="geometry" />
        </mxCell>
        <mxCell id="2K22D86Efe3pXR3erV2T-144" value="1:1" style="text;html=1;align=center;verticalAlign=middle;whiteSpace=wrap;rounded=0;fontSize=20;fontStyle=1" vertex="1" parent="1">
          <mxGeometry x="580" y="2540" width="60" height="30" as="geometry" />
        </mxCell>
        <mxCell id="2K22D86Efe3pXR3erV2T-145" value="complementa" style="rhombus;whiteSpace=wrap;html=1;fontSize=16;rotation=0;" vertex="1" parent="1">
          <mxGeometry x="1160" y="2250" width="150" height="90" as="geometry" />
        </mxCell>
        <mxCell id="2K22D86Efe3pXR3erV2T-146" value="" style="endArrow=none;html=1;rounded=0;entryX=1;entryY=0.5;entryDx=0;entryDy=0;exitX=0.5;exitY=1;exitDx=0;exitDy=0;" edge="1" parent="1" source="2K22D86Efe3pXR3erV2T-145" target="2K22D86Efe3pXR3erV2T-126">
          <mxGeometry width="50" height="50" relative="1" as="geometry">
            <mxPoint x="1410" y="2390" as="sourcePoint" />
            <mxPoint x="1210" y="2480" as="targetPoint" />
            <Array as="points">
              <mxPoint x="1235" y="2390" />
            </Array>
          </mxGeometry>
        </mxCell>
        <mxCell id="2K22D86Efe3pXR3erV2T-147" value="" style="endArrow=none;html=1;rounded=0;entryX=0.5;entryY=0;entryDx=0;entryDy=0;exitX=0;exitY=0.5;exitDx=0;exitDy=0;" edge="1" parent="1" source="2K22D86Efe3pXR3erV2T-145" target="2K22D86Efe3pXR3erV2T-126">
          <mxGeometry width="50" height="50" relative="1" as="geometry">
            <mxPoint x="1245" y="2350" as="sourcePoint" />
            <mxPoint x="1080" y="2400" as="targetPoint" />
            <Array as="points">
              <mxPoint x="1010" y="2295" />
            </Array>
          </mxGeometry>
        </mxCell>
        <mxCell id="2K22D86Efe3pXR3erV2T-148" value="0,1&lt;span style=&quot;color: rgba(0, 0, 0, 0); font-family: monospace; font-size: 0px; text-align: start; text-wrap: nowrap;&quot;&gt;%3CmxGraphModel%3E%3Croot%3E%3CmxCell%20id%3D%220%22%2F%3E%3CmxCell%20id%3D%221%22%20parent%3D%220%22%2F%3E%3CmxCell%20id%3D%222%22%20value%3D%220%2Cn%22%20style%3D%22text%3Bhtml%3D1%3Balign%3Dcenter%3BverticalAlign%3Dmiddle%3BwhiteSpace%3Dwrap%3Brounded%3D0%3BfontSize%3D16%3B%22%20vertex%3D%221%22%20parent%3D%221%22%3E%3CmxGeometry%20x%3D%22880%22%20y%3D%222720%22%20width%3D%2260%22%20height%3D%2230%22%20as%3D%22geometry%22%2F%3E%3C%2FmxCell%3E%3C%2Froot%3E%3C%2FmxGraphModel%3E&lt;/span&gt;" style="text;html=1;align=center;verticalAlign=middle;whiteSpace=wrap;rounded=0;fontSize=16;" vertex="1" parent="1">
          <mxGeometry x="1180" y="2390" width="60" height="30" as="geometry" />
        </mxCell>
        <mxCell id="2K22D86Efe3pXR3erV2T-149" value="0,1&lt;span style=&quot;color: rgba(0, 0, 0, 0); font-family: monospace; font-size: 0px; text-align: start; text-wrap: nowrap;&quot;&gt;%3CmxGraphModel%3E%3Croot%3E%3CmxCell%20id%3D%220%22%2F%3E%3CmxCell%20id%3D%221%22%20parent%3D%220%22%2F%3E%3CmxCell%20id%3D%222%22%20value%3D%220%2Cn%22%20style%3D%22text%3Bhtml%3D1%3Balign%3Dcenter%3BverticalAlign%3Dmiddle%3BwhiteSpace%3Dwrap%3Brounded%3D0%3BfontSize%3D16%3B%22%20vertex%3D%221%22%20parent%3D%221%22%3E%3CmxGeometry%20x%3D%22880%22%20y%3D%222720%22%20width%3D%2260%22%20height%3D%2230%22%20as%3D%22geometry%22%2F%3E%3C%2FmxCell%3E%3C%2Froot%3E%3C%2FmxGraphModel%3E&lt;/span&gt;" style="text;html=1;align=center;verticalAlign=middle;whiteSpace=wrap;rounded=0;fontSize=16;" vertex="1" parent="1">
          <mxGeometry x="1000" y="2250" width="60" height="30" as="geometry" />
        </mxCell>
        <mxCell id="2K22D86Efe3pXR3erV2T-150" value="1:1" style="text;html=1;align=center;verticalAlign=middle;whiteSpace=wrap;rounded=0;fontSize=20;fontStyle=1" vertex="1" parent="1">
          <mxGeometry x="1210" y="2200" width="60" height="30" as="geometry" />
        </mxCell>
      </root>
    </mxGraphModel>
  </diagram>
</mxfile>
